
<svg version="1.0" xmlns="http://www.w3.org/2000/svg" width="100px" height="100px" viewBox="0 0 100 100" preserveAspectRatio="xMidYMid meet" id="logolarraz">
 <g fill="#c93300">
  <path d="M2 50 l0 -48 48 0 48 0 0 6.50 c0 4.85 -0.15 6.50 -0.60 6.50 -0.35 0 -0.25 0.25 0.25 0.55 0.80 0.45 0.85 1 0.55 5.10 -0.25 3.30 -0.60 4.75 -1.15 5.20 -0.70 0.55 -0.70 0.60 0.10 0.65 0.80 0 0.85 2.05 0.85 35.75 l0 35.75 -48 0 -48 0 0 -48z"/>
 </g>
 <g fill="#faa332">
  <path d="M0 50 l0 -50 50 0 50 0 0 50 0 50 -50 0 -50 0 0 -50z m96.50 12.20 l0 -34.30 -2.35 1.40 c-1.35 0.75 -6.05 3.65 -10.45 6.50 -23.70 15.05 -33.25 19.95 -44.70 23 -5.40 1.45 -16.60 2.25 -17.20 1.25 -0.25 -0.40 0.40 -0.55 2.15 -0.55 4.10 0 13.95 -2.30 19.25 -4.45 6.35 -2.60 10.70 -5 20.30 -11.20 13.25 -8.55 23.05 -14.60 28.10 -17.35 l4.80 -2.65 0.20 -3.20 c0.10 -1.80 0.10 -3.30 0 -3.40 -0.40 -0.40 -7.55 3.65 -22.95 13.05 -22.85 13.95 -36.05 20.45 -45.05 22.25 -7.35 1.40 -16.20 -0.40 -19.20 -3.95 -4.05 -4.85 -2.55 -12.95 3.90 -20.80 6 -7.30 18.80 -14.70 29.10 -16.75 3.30 -0.70 9.95 -0.70 10.35 -0.05 0.35 0.55 -0.75 0.80 -4.65 1.20 -3.95 0.40 -14.20 4.05 -19.40 6.90 -8.70 4.80 -16.25 11.60 -18.95 17.10 -1.20 2.40 -1.35 3.25 -1.15 6.30 0.15 3 0.35 3.65 1.65 5.05 3.65 3.80 9.40 4.80 17.80 3.20 7.25 -1.40 11.90 -4 37.45 -20.50 11.25 -7.30 18.85 -11.60 26.15 -14.75 l4.85 -2.15 0 -4.90 0 -4.95 -46.50 0 -46.50 0 0 46.50 0 46.50 46.50 0 46.50 0 0 -34.30z"/>
  <path d="M78.85 89.90 c-0.25 -0.80 0.50 -2.40 1.15 -2.40 0.30 0 0.50 0.70 0.50 1.50 0 1.50 -1.20 2.15 -1.65 0.90z"/>
 </g>
 <g fill="#ffffff">
  <path d="M23.25 90 c-2.15 -1.05 -3.75 -3.20 -3.75 -5 0 -3.25 3.15 -5.55 8.90 -6.50 3.95 -0.65 4.30 -1.10 2.45 -3.25 -0.85 -1 -1.75 -1.40 -3.50 -1.60 -2.15 -0.25 -2.35 -0.40 -2.35 -1.65 l0 -1.35 2.80 0.40 c3.10 0.40 4.75 1.35 6.05 3.30 0.75 1.10 0.95 2.75 1.05 9 l0.20 7.65 -4.95 0 c-3.90 0 -5.30 -0.20 -6.90 -1z m8.65 -5.45 c0.15 -3.75 0.05 -4.05 -0.85 -4.05 -2.40 0 -6.30 1.20 -7.40 2.30 -3.10 3.10 0.55 6.40 6.60 5.95 l1.50 -0.10 0.15 -4.10z"/>
  <path d="M40.60 90.60 l-1.10 -0.15 0.10 -9.60 0.15 -9.60 1.40 -0.15 c1.20 -0.15 1.35 0 1.35 1.35 l0 1.50 3.30 -1.45 c3.80 -1.75 4.45 -1.80 4.90 -0.65 0.45 1.10 0.10 1.35 -4.20 3.05 l-3.75 1.50 -0.15 6.90 c-0.05 3.80 -0.30 7.05 -0.50 7.20 -0.20 0.15 -0.85 0.20 -1.50 0.10z"/>
  <path d="M53.65 90.65 c-1.15 -0.20 -1.15 -0.25 -1.15 -9.95 l0 -9.70 1.50 0 c1.35 0 1.50 0.15 1.50 1.50 l0 1.45 3.30 -1.45 c4 -1.80 4.70 -1.85 4.70 -0.30 0 0.95 -0.40 1.35 -1.85 1.80 -1.05 0.35 -2.85 1.05 -4 1.60 l-2.15 0.90 0 7.25 c0 4 -0.15 7.20 -0.35 7.20 -0.25 -0.05 -0.90 -0.20 -1.50 -0.30z"/>
  <path d="M64.60 89.95 c-4.75 -2.35 -4.75 -7.60 0 -9.85 1.20 -0.60 3.65 -1.30 5.55 -1.60 1.85 -0.35 3.35 -0.80 3.35 -1.10 0 -1.85 -2.85 -3.90 -5.40 -3.90 -1.60 0 -2.50 -1.55 -1.40 -2.45 0.80 -0.65 5.25 0.25 6.80 1.35 2.50 1.85 3 3.70 3 11.50 l0 7.10 -4.85 0 c-4 0 -5.30 -0.20 -7.05 -1.05z m8.80 -5.40 l0.15 -4.20 -2.60 0.35 c-5.05 0.70 -7.40 2.45 -6.75 5.10 0.50 1.85 3.75 3.20 7.30 3.05 l1.75 -0.10 0.15 -4.20z"/>
  <path d="M6.60 77.65 l0.15 -12.90 1.50 0 1.50 0 0 11.50 0.05 11.50 4.85 0.15 c4.80 0.15 4.85 0.15 4.85 1.35 l0 1.25 -6.50 0 -6.50 0 0.10 -12.85z"/>
  <path d="M79 89.40 c0 -0.70 2.25 -4 5.50 -8.15 3 -3.80 5.30 -7.15 5.20 -7.35 -0.15 -0.20 -2.60 -0.40 -5.50 -0.40 -5.20 0 -5.25 0 -5.10 -1.10 0.10 -0.65 0.45 -1.15 0.80 -1.10 0.30 0.05 3.65 0.10 7.35 0.15 6.75 0.05 6.75 0.05 6.75 1.25 0 0.65 -0.85 2.15 -1.95 3.35 -1.05 1.20 -3.50 4.35 -5.45 6.95 l-3.55 4.75 5.85 0.25 c5.45 0.25 5.85 0.30 5.85 1.25 0 0.95 -0.40 1 -7.85 1.15 l-7.90 0.15 0 -1.15z"/>
 </g>
</svg>