<svg width="0" height="0" class="visibility-hidden">

<symbol version="1.0" xmlns="http://www.w3.org/2000/svg" width="100px" height="100px" viewBox="0 0 100 100" preserveAspectRatio="xMidYMid meet" id="logolarraz">
 <g fill="#c93300">
  <path d="M2 50 l0 -48 48 0 48 0 0 6.50 c0 4.85 -0.15 6.50 -0.60 6.50 -0.35 0 -0.25 0.25 0.25 0.55 0.80 0.45 0.85 1 0.55 5.10 -0.25 3.30 -0.60 4.75 -1.15 5.20 -0.70 0.55 -0.70 0.60 0.10 0.65 0.80 0 0.85 2.05 0.85 35.75 l0 35.75 -48 0 -48 0 0 -48z"/>
 </g>
 <g fill="#faa332">
  <path d="M0 50 l0 -50 50 0 50 0 0 50 0 50 -50 0 -50 0 0 -50z m96.50 12.20 l0 -34.30 -2.35 1.40 c-1.35 0.75 -6.05 3.65 -10.45 6.50 -23.70 15.05 -33.25 19.95 -44.70 23 -5.40 1.45 -16.60 2.25 -17.20 1.25 -0.25 -0.40 0.40 -0.55 2.15 -0.55 4.10 0 13.95 -2.30 19.25 -4.45 6.35 -2.60 10.70 -5 20.30 -11.20 13.25 -8.55 23.05 -14.60 28.10 -17.35 l4.80 -2.65 0.20 -3.20 c0.10 -1.80 0.10 -3.30 0 -3.40 -0.40 -0.40 -7.55 3.65 -22.95 13.05 -22.85 13.95 -36.05 20.45 -45.05 22.25 -7.35 1.40 -16.20 -0.40 -19.20 -3.95 -4.05 -4.85 -2.55 -12.95 3.90 -20.80 6 -7.30 18.80 -14.70 29.10 -16.75 3.30 -0.70 9.95 -0.70 10.35 -0.05 0.35 0.55 -0.75 0.80 -4.65 1.20 -3.95 0.40 -14.20 4.05 -19.40 6.90 -8.70 4.80 -16.25 11.60 -18.95 17.10 -1.20 2.40 -1.35 3.25 -1.15 6.30 0.15 3 0.35 3.65 1.65 5.05 3.65 3.80 9.40 4.80 17.80 3.20 7.25 -1.40 11.90 -4 37.45 -20.50 11.25 -7.30 18.85 -11.60 26.15 -14.75 l4.85 -2.15 0 -4.90 0 -4.95 -46.50 0 -46.50 0 0 46.50 0 46.50 46.50 0 46.50 0 0 -34.30z"/>
  <path d="M78.85 89.90 c-0.25 -0.80 0.50 -2.40 1.15 -2.40 0.30 0 0.50 0.70 0.50 1.50 0 1.50 -1.20 2.15 -1.65 0.90z"/>
 </g>
 <g fill="#ffffff">
  <path d="M23.25 90 c-2.15 -1.05 -3.75 -3.20 -3.75 -5 0 -3.25 3.15 -5.55 8.90 -6.50 3.95 -0.65 4.30 -1.10 2.45 -3.25 -0.85 -1 -1.75 -1.40 -3.50 -1.60 -2.15 -0.25 -2.35 -0.40 -2.35 -1.65 l0 -1.35 2.80 0.40 c3.10 0.40 4.75 1.35 6.05 3.30 0.75 1.10 0.95 2.75 1.05 9 l0.20 7.65 -4.95 0 c-3.90 0 -5.30 -0.20 -6.90 -1z m8.65 -5.45 c0.15 -3.75 0.05 -4.05 -0.85 -4.05 -2.40 0 -6.30 1.20 -7.40 2.30 -3.10 3.10 0.55 6.40 6.60 5.95 l1.50 -0.10 0.15 -4.10z"/>
  <path d="M40.60 90.60 l-1.10 -0.15 0.10 -9.60 0.15 -9.60 1.40 -0.15 c1.20 -0.15 1.35 0 1.35 1.35 l0 1.50 3.30 -1.45 c3.80 -1.75 4.45 -1.80 4.90 -0.65 0.45 1.10 0.10 1.35 -4.20 3.05 l-3.75 1.50 -0.15 6.90 c-0.05 3.80 -0.30 7.05 -0.50 7.20 -0.20 0.15 -0.85 0.20 -1.50 0.10z"/>
  <path d="M53.65 90.65 c-1.15 -0.20 -1.15 -0.25 -1.15 -9.95 l0 -9.70 1.50 0 c1.35 0 1.50 0.15 1.50 1.50 l0 1.45 3.30 -1.45 c4 -1.80 4.70 -1.85 4.70 -0.30 0 0.95 -0.40 1.35 -1.85 1.80 -1.05 0.35 -2.85 1.05 -4 1.60 l-2.15 0.90 0 7.25 c0 4 -0.15 7.20 -0.35 7.20 -0.25 -0.05 -0.90 -0.20 -1.50 -0.30z"/>
  <path d="M64.60 89.95 c-4.75 -2.35 -4.75 -7.60 0 -9.85 1.20 -0.60 3.65 -1.30 5.55 -1.60 1.85 -0.35 3.35 -0.80 3.35 -1.10 0 -1.85 -2.85 -3.90 -5.40 -3.90 -1.60 0 -2.50 -1.55 -1.40 -2.45 0.80 -0.65 5.25 0.25 6.80 1.35 2.50 1.85 3 3.70 3 11.50 l0 7.10 -4.85 0 c-4 0 -5.30 -0.20 -7.05 -1.05z m8.80 -5.40 l0.15 -4.20 -2.60 0.35 c-5.05 0.70 -7.40 2.45 -6.75 5.10 0.50 1.85 3.75 3.20 7.30 3.05 l1.75 -0.10 0.15 -4.20z"/>
  <path d="M6.60 77.65 l0.15 -12.90 1.50 0 1.50 0 0 11.50 0.05 11.50 4.85 0.15 c4.80 0.15 4.85 0.15 4.85 1.35 l0 1.25 -6.50 0 -6.50 0 0.10 -12.85z"/>
  <path d="M79 89.40 c0 -0.70 2.25 -4 5.50 -8.15 3 -3.80 5.30 -7.15 5.20 -7.35 -0.15 -0.20 -2.60 -0.40 -5.50 -0.40 -5.20 0 -5.25 0 -5.10 -1.10 0.10 -0.65 0.45 -1.15 0.80 -1.10 0.30 0.05 3.65 0.10 7.35 0.15 6.75 0.05 6.75 0.05 6.75 1.25 0 0.65 -0.85 2.15 -1.95 3.35 -1.05 1.20 -3.50 4.35 -5.45 6.95 l-3.55 4.75 5.85 0.25 c5.45 0.25 5.85 0.30 5.85 1.25 0 0.95 -0.40 1 -7.85 1.15 l-7.90 0.15 0 -1.15z"/>
 </g>
</symbol>



<symbol xmlns="http://www.w3.org/2000/svg" viewBox="0 0 512 512" id="rrsstwitter"><!--!Font Awesome Free v7.1.0 by @fontawesome - https://fontawesome.com License - https://fontawesome.com/license/free Copyright 2025 Fonticons, Inc.--><path d="M459.4 151.7c.3 4.5 .3 9.1 .3 13.6 0 138.7-105.6 298.6-298.6 298.6-59.5 0-114.7-17.2-161.1-47.1 8.4 1 16.6 1.3 25.3 1.3 49.1 0 94.2-16.6 130.3-44.8-46.1-1-84.8-31.2-98.1-72.8 6.5 1 13 1.6 19.8 1.6 9.4 0 18.8-1.3 27.6-3.6-48.1-9.7-84.1-52-84.1-103l0-1.3c14 7.8 30.2 12.7 47.4 13.3-28.3-18.8-46.8-51-46.8-87.4 0-19.5 5.2-37.4 14.3-53 51.7 63.7 129.3 105.3 216.4 109.8-1.6-7.8-2.6-15.9-2.6-24 0-57.8 46.8-104.9 104.9-104.9 30.2 0 57.5 12.7 76.7 33.1 23.7-4.5 46.5-13.3 66.6-25.3-7.8 24.4-24.4 44.8-46.1 57.8 21.1-2.3 41.6-8.1 60.4-16.2-14.3 20.8-32.2 39.3-52.6 54.3z"/></symbol>

<svg xmlns="http://www.w3.org/2000/svg" viewBox="0 0 320 512" id="rrssfacebook"><!--!Font Awesome Free v7.1.0 by @fontawesome - https://fontawesome.com License - https://fontawesome.com/license/free Copyright 2025 Fonticons, Inc.--><path d="M80 299.3l0 212.7 116 0 0-212.7 86.5 0 18-97.8-104.5 0 0-34.6c0-51.7 20.3-71.5 72.7-71.5 16.3 0 29.4 .4 37 1.2l0-88.7C291.4 4 256.4 0 236.2 0 129.3 0 80 50.5 80 159.4l0 42.1-66 0 0 97.8 66 0z"/></svg>

<svg xmlns="http://www.w3.org/2000/svg" viewBox="0 0 448 512" id="rrssinstagram"><!--!Font Awesome Free v7.1.0 by @fontawesome - https://fontawesome.com License - https://fontawesome.com/license/free Copyright 2025 Fonticons, Inc.--><path d="M224.3 141a115 115 0 1 0 -.6 230 115 115 0 1 0 .6-230zm-.6 40.4a74.6 74.6 0 1 1 .6 149.2 74.6 74.6 0 1 1 -.6-149.2zm93.4-45.1a26.8 26.8 0 1 1 53.6 0 26.8 26.8 0 1 1 -53.6 0zm129.7 27.2c-1.7-35.9-9.9-67.7-36.2-93.9-26.2-26.2-58-34.4-93.9-36.2-37-2.1-147.9-2.1-184.9 0-35.8 1.7-67.6 9.9-93.9 36.1s-34.4 58-36.2 93.9c-2.1 37-2.1 147.9 0 184.9 1.7 35.9 9.9 67.7 36.2 93.9s58 34.4 93.9 36.2c37 2.1 147.9 2.1 184.9 0 35.9-1.7 67.7-9.9 93.9-36.2 26.2-26.2 34.4-58 36.2-93.9 2.1-37 2.1-147.8 0-184.8zM399 388c-7.8 19.6-22.9 34.7-42.6 42.6-29.5 11.7-99.5 9-132.1 9s-102.7 2.6-132.1-9c-19.6-7.8-34.7-22.9-42.6-42.6-11.7-29.5-9-99.5-9-132.1s-2.6-102.7 9-132.1c7.8-19.6 22.9-34.7 42.6-42.6 29.5-11.7 99.5-9 132.1-9s102.7-2.6 132.1 9c19.6 7.8 34.7 22.9 42.6 42.6 11.7 29.5 9 99.5 9 132.1s2.7 102.7-9 132.1z"/></svg>

<svg xmlns="http://www.w3.org/2000/svg" viewBox="0 0 384 512" id="location"><!--!Font Awesome Free v7.1.0 by @fontawesome - https://fontawesome.com License - https://fontawesome.com/license/free Copyright 2025 Fonticons, Inc.--><path d="M0 188.6C0 84.4 86 0 192 0S384 84.4 384 188.6c0 119.3-120.2 262.3-170.4 316.8-11.8 12.8-31.5 12.8-43.3 0-50.2-54.5-170.4-197.5-170.4-316.8zM192 256a64 64 0 1 0 0-128 64 64 0 1 0 0 128z"/></svg>

<svg xmlns="http://www.w3.org/2000/svg" viewBox="0 0 512 512" id="phoneleft"><!--!Font Awesome Pro v7.1.0 by @fontawesome - https://fontawesome.com License - https://fontawesome.com/license (Commercial License) Copyright 2025 Fonticons, Inc.--><path d="M160.2 25C152.3 6.1 131.7-3.9 112.1 1.4l-5.5 1.5c-64.6 17.6-119.8 80.2-103.7 156.4 37.1 175 174.8 312.7 349.8 349.8 76.3 16.2 138.8-39.1 156.4-103.7l1.5-5.5c5.4-19.7-4.7-40.3-23.5-48.1l-97.3-40.5c-16.5-6.9-35.6-2.1-47 11.8l-38.6 47.2C233.9 335.4 177.3 277 144.8 205.3L189 169.3c13.9-11.3 18.6-30.4 11.8-47L160.2 25z"/></svg>

<svg xmlns="http://www.w3.org/2000/svg" viewBox="0 0 512 512" id="phoneright"><!--!Font Awesome Free v7.1.0 by @fontawesome - https://fontawesome.com License - https://fontawesome.com/license/free Copyright 2025 Fonticons, Inc.--><path d="M351.8 25c7.8-18.8 28.4-28.9 48.1-23.5l5.5 1.5c64.6 17.6 119.8 80.2 103.7 156.4-37.1 175-174.8 312.7-349.8 349.8-76.3 16.2-138.8-39.1-156.4-103.7l-1.5-5.5c-5.4-19.7 4.7-40.3 23.5-48.1l97.3-40.5c16.5-6.9 35.6-2.1 47 11.8l38.6 47.2c70.3-34.9 126.8-93.3 159.3-164.9l-44.1-36.1c-13.9-11.3-18.6-30.4-11.8-47L351.8 25z"/></svg>

<svg xmlns="http://www.w3.org/2000/svg" viewBox="0 0 512 512" id="letter"><!--!Font Awesome Pro v7.1.0 by @fontawesome - https://fontawesome.com License - https://fontawesome.com/license (Commercial License) Copyright 2025 Fonticons, Inc.--><path d="M64.4 175.8L256 33.9 447.6 175.8 289.5 293c-9.7 7.2-21.4 11-33.5 11s-23.8-3.9-33.5-11L64.4 175.8zM256-32c-12.1 0-23.8 3.9-33.5 11L25.9 124.7C9.6 136.8 0 155.8 0 176.1L0 416c0 35.3 28.7 64 64 64l384 0c35.3 0 64-28.7 64-64l0-239.9c0-20.3-9.6-39.4-25.9-51.4L289.5-21c-9.7-7.2-21.4-11-33.5-11z"/></svg>

<svg xmlns="http://www.w3.org/2000/svg" viewBox="0 0 512 512" id="clock"><!--!Font Awesome Pro v7.1.0 by @fontawesome - https://fontawesome.com License - https://fontawesome.com/license (Commercial License) Copyright 2025 Fonticons, Inc.--><path d="M256 0a256 256 0 1 1 0 512 256 256 0 1 1 0-512zM232 120l0 136c0 8 4 15.5 10.7 20l96 64c11 7.4 25.9 4.4 33.3-6.7s4.4-25.9-6.7-33.3L280 243.2 280 120c0-13.3-10.7-24-24-24s-24 10.7-24 24z"/></svg>

<svg xmlns="http://www.w3.org/2000/svg" viewBox="0 0 512 512" id="heart"><!--!Font Awesome Pro v7.1.0 by @fontawesome - https://fontawesome.com License - https://fontawesome.com/license (Commercial License) Copyright 2025 Fonticons, Inc.--><path d="M241 87.1l15 20.7 15-20.7C296 52.5 336.2 32 378.9 32 452.4 32 512 91.6 512 165.1l0 2.6c0 112.2-139.9 242.5-212.9 298.2-12.4 9.4-27.6 14.1-43.1 14.1s-30.8-4.6-43.1-14.1C139.9 410.2 0 279.9 0 167.7l0-2.6C0 91.6 59.6 32 133.1 32 175.8 32 216 52.5 241 87.1z"/></svg>

<svg xmlns="http://www.w3.org/2000/svg" viewBox="0 0 320 512" id="lamp"><!--!Font Awesome Free v7.1.0 by @fontawesome - https://fontawesome.com License - https://fontawesome.com/license/free Copyright 2025 Fonticons, Inc.--><path d="M118.3 238.4c3.5-12.5 6.9-33.6 13.2-33.6 8.3 1.8 9.6 23.4 18.6 36.6 4.6-23.5 5.3-85.1 14.1-86.7 9-.7 19.7 66.5 22 77.5 9.9 4.1 48.9 6.6 48.9 6.6 1.9 7.3-24 7.6-40 7.8-4.6 14.8-5.4 27.7-11.4 28-4.7 .2-8.2-28.8-17.5-49.6l-9.4 65.5c-4.4 13-15.5-22.5-21.9-39.3-3.3-.1-62.4-1.6-47.6-7.8l31-5zM228 448c21.2 0 21.2-32 0-32L92 416c-21.2 0-21.2 32 0 32l136 0zm-24 64c21.2 0 21.2-32 0-32l-88 0c-21.2 0-21.2 32 0 32l88 0zm34.2-141.5c3.2-18.9 5.2-36.4 11.9-48.8 7.9-14.7 16.1-28.1 24-41 24.6-40.4 45.9-75.2 45.9-125.5 0-85.6-71.8-155.2-160-155.2S0 69.6 0 155.2c0 50.2 21.3 85.1 45.9 125.5 7.9 12.9 16 26.3 24 41 6.7 12.5 8.7 29.8 11.9 48.9 3.5 21 36.1 15.7 32.6-5.1-3.6-21.7-5.6-40.7-15.3-58.6-32.6-60.4-66.1-95.6-66.1-151.7 0-67.9 57-123.2 127-123.2S287 87.3 287 155.2c0 56.1-33.5 91.3-66.1 151.6-9.7 18-11.7 37.4-15.3 58.6-3.4 20.6 29 26.4 32.6 5.1z"/></svg>

<svg xmlns="http://www.w3.org/2000/svg" viewBox="0 0 640 512" id="persons"><!--!Font Awesome Pro v7.1.0 by @fontawesome - https://fontawesome.com License - https://fontawesome.com/license (Commercial License) Copyright 2025 Fonticons, Inc.--><path d="M320 16a104 104 0 1 1 0 208 104 104 0 1 1 0-208zM96 88a72 72 0 1 1 0 144 72 72 0 1 1 0-144zM0 416c0-70.7 57.3-128 128-128 12.8 0 25.2 1.9 36.9 5.4-32.9 36.8-52.9 85.4-52.9 138.6l0 16c0 11.4 2.4 22.2 6.7 32L32 480c-17.7 0-32-14.3-32-32l0-32zm521.3 64c4.3-9.8 6.7-20.6 6.7-32l0-16c0-53.2-20-101.8-52.9-138.6 11.7-3.5 24.1-5.4 36.9-5.4 70.7 0 128 57.3 128 128l0 32c0 17.7-14.3 32-32 32l-86.7 0zM472 160a72 72 0 1 1 144 0 72 72 0 1 1 -144 0zM160 432c0-88.4 71.6-160 160-160s160 71.6 160 160l0 16c0 17.7-14.3 32-32 32l-256 0c-17.7 0-32-14.3-32-32l0-16z"/></svg>

</svg>
